<?xml version="1.0" standalone="no"?>
<!DOCTYPE svg PUBLIC "-//W3C//DTD SVG 20010904//EN"
 "http://www.w3.org/TR/2001/REC-SVG-20010904/DTD/svg10.dtd">
<svg version="1.0" xmlns="http://www.w3.org/2000/svg"
 width="300.000000pt" height="112.000000pt" viewBox="0 0 300.000000 112.000000"
 preserveAspectRatio="xMidYMid meet">
<metadata>
Created by potrace 1.10, written by Peter Selinger 2001-2011
</metadata>
<g transform="translate(0.000000,112.000000) scale(0.100000,-0.100000)"
fill="#000000" stroke="none">
<path d="M2029 1022 c-1 -4 -1 -10 0 -14 0 -5 -7 -8 -18 -8 -25 0 -38 -70 -16
-83 9 -4 13 -12 10 -18 -4 -5 4 -9 17 -9 51 0 68 -11 69 -44 1 -31 1 -31 11 7
10 36 12 38 42 33 17 -2 133 -6 258 -8 206 -3 227 -5 232 -20 3 -13 14 -18 43
-18 28 0 34 3 23 10 -8 5 -21 10 -29 10 -8 0 -23 8 -33 17 -24 21 -48 23 -323
28 -121 1 -239 3 -262 4 l-43 1 0 40 0 40 43 1 c23 1 67 2 97 4 30 1 118 4
195 6 l140 3 -205 6 c-113 3 -215 9 -227 12 -13 4 -24 4 -24 0z"/>
<path d="M2490 1016 c0 -2 51 -21 113 -42 61 -20 116 -42 120 -48 4 -6 6 -26
4 -45 -3 -29 -2 -31 10 -15 38 52 2 88 -121 125 -94 28 -126 34 -126 25z"/>
<path d="M2631 818 c-2 -24 -38 -31 -129 -26 l-77 4 0 -65 0 -66 -235 -5
c-314 -7 -244 -19 148 -27 283 -5 302 -6 302 -23 0 -48 -6 -50 -129 -50 -64 0
-180 3 -258 7 -136 6 -143 7 -144 27 0 19 -1 19 -10 -3 -7 -18 -6 -27 3 -33
10 -6 10 -8 1 -8 -7 0 -13 -3 -13 -7 0 -5 114 -8 253 -8 195 0 257 -3 275 -14
12 -7 22 -9 23 -5 1 5 5 -2 9 -16 l8 -25 1 25 c1 15 -4 31 -9 36 -6 6 -7 25
-4 42 6 31 8 32 62 32 34 0 52 4 46 9 -11 11 -66 19 -201 29 -56 4 -106 11
-110 15 -4 5 -2 16 5 27 7 12 8 21 2 25 -6 3 -10 15 -10 25 0 16 10 19 83 22
75 3 215 -13 238 -27 5 -4 9 -29 9 -56 0 -31 4 -48 10 -44 6 3 10 26 10 50 0
50 -27 84 -67 86 -13 1 -27 3 -33 4 -5 1 -19 3 -29 4 -13 1 -21 10 -24 29 -2
15 -5 19 -6 10z"/>
<path d="M2080 791 c0 -6 -19 -8 -49 -4 -31 3 -51 1 -55 -6 -11 -17 -15 -111
-5 -111 5 0 9 23 9 50 l0 50 215 0 c179 0 215 2 215 14 0 12 -30 15 -165 16
-103 0 -165 -3 -165 -9z"/>
<path d="M2023 472 c-35 -1 -63 -7 -63 -12 0 -10 55 -11 426 -10 111 0 220 -2
243 -6 40 -6 42 -8 39 -38 l-3 -31 -365 -1 c-383 0 -426 -1 -419 -9 5 -4 100
-11 277 -20 95 -5 113 -3 118 10 12 30 41 17 50 -22 6 -28 9 -32 11 -17 3 16
13 23 41 26 55 8 306 3 320 -6 7 -4 12 -18 12 -32 0 -13 5 -24 10 -24 6 0 10
18 10 40 0 37 -2 40 -27 40 -27 0 -28 1 -25 49 l4 50 -44 5 c-53 7 -529 13
-615 8z"/>
<path d="M1890 311 c0 -16 6 -33 13 -38 6 -5 86 -10 177 -12 91 -1 172 -4 181
-7 8 -2 43 0 77 4 48 7 62 6 66 -5 4 -10 44 -13 181 -13 l175 0 0 -32 c0 -18
3 -44 6 -58 3 -14 2 -20 -3 -14 -5 8 -122 13 -363 18 -195 4 -384 11 -420 15
-72 9 -80 7 -59 -14 10 -10 55 -15 164 -20 83 -3 187 -9 233 -13 46 -4 86 -4
88 0 7 11 122 10 129 -1 3 -6 59 -8 130 -5 l125 4 0 -40 c0 -38 19 -59 21 -22
0 9 2 30 4 46 3 21 -1 29 -16 33 -16 5 -19 14 -19 63 0 57 0 58 -32 64 -18 4
-179 9 -358 11 -179 2 -361 7 -406 10 -79 6 -81 7 -76 31 2 14 0 24 -7 24 -6
0 -11 -13 -11 -29z m758 -178 c-21 -2 -55 -2 -75 0 -21 2 -4 4 37 4 41 0 58
-2 38 -4z"/>
<path d="M1924 224 c-4 -14 -2 -30 5 -37 8 -8 11 -1 11 26 0 43 -7 48 -16 11z"/>
<path d="M1941 109 c0 -9 -9 -20 -18 -23 -15 -6 -15 -8 -3 -17 13 -8 13 -10 0
-19 -13 -8 -12 -10 3 -10 22 0 30 19 24 57 -2 15 -5 21 -6 12z"/>
<path d="M0 77 c0 -11 46 -13 240 -12 132 2 240 -1 240 -6 0 -5 10 -9 23 -9
13 0 17 3 10 8 -6 4 176 7 405 7 230 0 420 -4 423 -8 4 -5 16 -3 27 4 16 10
26 10 47 1 14 -7 24 -9 22 -5 -3 5 59 7 136 7 153 -1 207 3 207 17 0 5 -379 9
-890 9 -735 0 -890 -2 -890 -13z"/>
<path d="M2825 60 c-5 -8 146 -1 154 6 3 3 -30 4 -72 3 -43 -1 -79 -5 -82 -9z"/>
<path d="M515 39 c-143 -5 -288 -9 -323 -9 -34 -1 -62 -5 -62 -9 0 -11 183
-13 199 -2 9 6 24 6 39 0 15 -6 29 -6 36 0 6 5 94 10 196 11 102 1 214 5 250
9 l65 8 -70 0 c-38 -1 -187 -4 -330 -8z"/>
<path d="M941 46 c10 -9 139 -14 139 -6 0 6 -32 10 -72 10 -39 0 -69 -2 -67
-4z"/>
<path d="M1220 31 c79 -4 120 -8 100 -12 l-35 -6 38 -1 c20 -1 37 2 37 7 0 12
83 12 91 0 3 -6 15 -6 31 0 14 5 31 6 39 1 17 -11 199 -11 199 0 0 9 -20 10
-380 14 -153 1 -201 0 -120 -3z"/>
<path d="M2813 29 c-12 -12 -360 -15 -629 -5 -132 5 -254 5 -270 1 -27 -8 -26
-9 21 -14 28 -3 228 -6 445 -6 360 0 540 8 540 24 0 9 -98 9 -107 0z"/>
</g>
</svg>
