<?xml version="1.0" standalone="no"?>
<!DOCTYPE svg PUBLIC "-//W3C//DTD SVG 20010904//EN"
 "http://www.w3.org/TR/2001/REC-SVG-20010904/DTD/svg10.dtd">
<svg version="1.0" xmlns="http://www.w3.org/2000/svg"
 width="300.000000pt" height="300.000000pt" viewBox="0 0 300.000000 300.000000"
 preserveAspectRatio="xMidYMid meet">
<metadata>
Created by potrace 1.10, written by Peter Selinger 2001-2011
</metadata>
<g transform="translate(0.000000,300.000000) scale(0.100000,-0.100000)"
fill="#000000" stroke="none">
<path d="M1075 2642 c-214 -41 -392 -77 -394 -79 -2 -1 -2 -6 1 -9 3 -3 181
-51 395 -106 301 -79 403 -102 453 -101 61 0 178 28 814 194 21 6 35 14 30 19
-16 14 -799 160 -855 159 -30 -1 -229 -35 -444 -77z m611 17 c60 -11 198 -38
308 -60 109 -21 201 -39 204 -39 3 0 2 -4 -4 -10 -17 -17 -618 -170 -669 -170
-47 0 -642 153 -658 169 -10 10 8 14 278 66 105 20 217 42 250 50 87 19 168
18 291 -6z"/>
<path d="M2177 2473 c-4 -3 -7 -61 -7 -127 -1 -82 -5 -129 -14 -145 -9 -16
-12 -44 -9 -80 4 -36 0 -75 -11 -110 -9 -30 -16 -65 -16 -78 0 -22 4 -23 65
-23 36 0 65 3 65 8 0 4 -9 41 -20 82 -23 87 -25 119 -8 154 9 21 8 29 -5 44
-14 15 -17 42 -17 150 0 121 -4 144 -23 125z m18 -513 c-3 -6 -10 -10 -16 -10
-10 0 -12 33 -2 44 9 9 26 -22 18 -34z"/>
<path d="M1083 2404 c3 -10 9 -59 13 -107 9 -117 24 -140 134 -194 161 -80
342 -93 508 -37 95 32 188 87 206 122 7 15 17 71 21 125 7 93 6 99 -11 93 -11
-3 -73 -19 -139 -35 -66 -17 -150 -39 -185 -50 -36 -12 -79 -21 -96 -21 -27 0
-382 94 -438 116 -15 6 -17 3 -13 -12z m251 -95 l191 -52 60 16 c33 8 113 29
178 46 65 18 128 31 140 29 20 -3 22 -8 20 -63 -3 -74 -20 -98 -99 -141 -168
-92 -398 -97 -570 -13 -87 43 -111 76 -120 162 -4 37 -3 67 1 67 4 0 94 -23
199 -51z"/>
<path d="M1116 2118 c-11 -35 -14 -123 -6 -174 38 -234 254 -393 482 -355 227
37 369 218 356 450 -3 45 -7 83 -10 86 -3 3 -26 -8 -50 -24 -101 -69 -216
-101 -359 -101 -143 0 -261 34 -376 111 -25 16 -34 18 -37 7z m108 -89 c191
-90 415 -91 604 -4 86 40 88 38 79 -62 -16 -163 -124 -287 -287 -329 -218 -56
-431 88 -472 317 -9 51 -6 109 6 109 2 0 34 -14 70 -31z"/>
<path d="M1450 1530 c-34 -34 -27 -57 35 -108 21 -18 12 -68 -27 -146 -16 -32
-30 -71 -30 -87 -1 -36 82 -219 100 -219 17 0 102 176 102 212 0 16 -13 54
-29 86 -38 75 -48 135 -26 153 61 51 68 76 35 109 -16 16 -33 20 -80 20 -47 0
-64 -4 -80 -20z m125 -35 c0 -6 -10 -24 -23 -40 l-23 -29 -26 26 c-37 38 -26
60 29 56 24 -2 43 -8 43 -13z m-5 -247 c14 -33 20 -61 16 -80 -8 -42 -43 -118
-54 -118 -15 0 -62 96 -62 128 0 16 12 55 26 86 30 66 39 64 74 -16z"/>
<path d="M1107 1434 c-56 -20 -158 -96 -212 -156 -61 -70 -122 -194 -141 -291
-14 -67 -14 -81 -3 -92 56 -53 1513 -52 1555 1 26 32 -25 208 -88 306 -113
175 -329 298 -395 226 -11 -13 -75 -129 -142 -258 -67 -129 -128 -241 -135
-248 -23 -24 -51 17 -176 261 -67 130 -131 244 -143 252 -26 18 -69 18 -120
-1z m101 -41 c12 -10 73 -119 138 -243 64 -124 124 -234 133 -244 16 -19 11
-19 -209 -12 -124 3 -247 8 -275 11 -27 2 -81 6 -119 10 -37 3 -72 8 -77 11
-25 15 5 137 54 223 63 109 177 216 267 247 48 18 64 17 88 -3z m762 -10 c30
-15 87 -58 127 -96 57 -54 82 -88 113 -151 44 -88 70 -190 55 -205 -13 -12
-78 -19 -295 -31 -172 -10 -390 -13 -390 -7 0 11 252 482 266 498 24 26 60 24
124 -8z"/>
<path d="M570 839 c-80 -32 -124 -124 -124 -259 0 -225 98 -298 344 -259 36 5
167 13 292 17 208 6 229 9 255 28 16 12 29 33 31 47 3 24 1 26 -25 22 -15 -3
-180 -19 -365 -35 -358 -31 -369 -31 -417 13 -82 75 -79 253 4 326 61 53 129
36 159 -40 20 -49 20 -63 0 -105 -31 -66 -96 -54 -115 21 -11 44 -32 59 -42
31 -3 -8 -9 -41 -12 -73 -5 -45 -2 -66 12 -93 30 -59 57 -65 213 -52 427 37
593 56 607 71 30 30 -1 247 -41 289 -9 9 -111 20 -347 37 -371 27 -393 28
-429 14z m297 -44 c73 -3 142 -8 155 -10 13 -2 76 -6 142 -10 65 -3 129 -10
142 -15 30 -12 48 -72 48 -164 l1 -70 -35 -7 c-19 -4 -62 -9 -95 -12 -33 -3
-174 -15 -312 -28 -275 -24 -294 -23 -313 27 -14 36 -7 40 34 20 118 -56 188
146 85 243 -21 20 -19 43 4 36 7 -2 71 -6 144 -10z"/>
<path d="M2125 829 c-126 -9 -265 -18 -307 -18 -43 -1 -78 -3 -78 -5 0 -2 7
-33 16 -67 9 -36 17 -107 17 -161 1 -91 2 -99 21 -103 12 -2 190 -20 396 -40
l375 -36 17 21 c21 26 32 113 25 205 -11 154 -76 227 -199 224 -29 -1 -156
-10 -283 -20z m364 -35 c16 -9 40 -36 53 -58 20 -36 23 -54 23 -153 0 -88 -3
-116 -15 -128 -14 -14 -36 -13 -220 5 -244 24 -288 29 -360 35 -137 13 -150
16 -154 38 -3 12 -7 60 -10 107 -2 47 -7 92 -11 101 -8 22 9 27 103 34 42 3
97 8 122 10 25 2 101 7 170 11 69 3 126 7 127 8 1 1 34 3 72 4 53 3 78 -1 100
-14z"/>
<path d="M1403 758 c18 -45 21 -73 21 -183 0 -97 -4 -141 -17 -173 l-16 -43
157 3 157 3 14 40 c36 102 17 370 -27 394 -10 5 -83 10 -164 10 l-146 2 21
-53z m254 1 c24 -9 37 -47 48 -139 6 -47 1 -91 -18 -185 -7 -31 -20 -35 -129
-35 -110 0 -110 0 -104 23 14 52 17 178 7 251 -9 63 -9 81 1 88 16 10 166 8
195 -3z"/>
<path d="M1752 407 c-8 -9 -12 -24 -10 -34 3 -16 24 -19 210 -29 114 -7 262
-17 329 -24 122 -12 199 -9 244 12 29 13 33 28 8 28 -10 0 -130 11 -267 25
-361 36 -498 42 -514 22z"/>
<path d="M1380 326 c0 -2 16 -14 35 -26 23 -14 44 -41 64 -82 l29 -61 26 52
c15 28 33 54 42 58 8 3 46 -11 85 -32 39 -20 73 -34 76 -31 8 8 -25 93 -44
111 -11 12 -45 15 -164 15 -82 0 -149 -2 -149 -4z"/>
</g>
</svg>
