<?xml version="1.0" standalone="no"?>
<!DOCTYPE svg PUBLIC "-//W3C//DTD SVG 20010904//EN"
 "http://www.w3.org/TR/2001/REC-SVG-20010904/DTD/svg10.dtd">
<svg version="1.0" xmlns="http://www.w3.org/2000/svg"
 width="300.000000pt" height="168.000000pt" viewBox="0 0 300.000000 168.000000"
 preserveAspectRatio="xMidYMid meet">
<metadata>
Created by potrace 1.10, written by Peter Selinger 2001-2011
</metadata>
<g transform="translate(0.000000,168.000000) scale(0.100000,-0.100000)"
fill="#000000" stroke="none">
<path d="M1379 1640 c-165 -42 -304 -151 -374 -295 -39 -79 -55 -150 -55 -247
0 -155 59 -290 174 -400 53 -52 173 -118 212 -118 23 0 24 3 24 63 l0 62 -58
-3 c-67 -4 -100 15 -132 78 -10 20 -33 49 -50 64 -17 14 -28 30 -25 36 14 23
51 8 94 -38 53 -57 79 -72 118 -72 37 0 50 9 72 53 l19 37 -24 0 c-49 0 -133
41 -167 81 -42 49 -57 97 -57 185 0 55 5 78 25 112 19 34 23 52 19 85 -7 56 7
101 32 105 11 2 46 -10 77 -26 57 -29 60 -29 133 -19 53 8 92 8 138 0 61 -10
66 -10 121 18 32 16 68 29 81 29 19 0 24 -7 30 -46 3 -25 4 -60 1 -79 -4 -23
-1 -38 9 -46 25 -20 47 -116 40 -172 -17 -128 -92 -207 -211 -224 -45 -6 -45
-6 -28 -25 14 -16 19 -44 23 -137 5 -111 6 -116 27 -119 13 -2 54 13 92 33
262 138 367 463 236 730 -59 121 -170 221 -301 271 -55 22 -90 27 -174 30 -58
2 -121 -1 -141 -6z m222 -40 c183 -35 347 -187 394 -365 45 -176 -4 -363 -130
-490 -61 -61 -157 -121 -175 -110 -6 3 -10 48 -10 100 l0 93 33 11 c106 35
179 145 180 273 1 55 -5 85 -21 122 -13 29 -22 69 -22 98 0 60 -22 110 -55
128 -21 11 -32 10 -82 -10 -49 -19 -79 -23 -203 -25 -133 -2 -150 0 -209 22
-50 20 -69 23 -87 14 -35 -16 -55 -54 -61 -118 -3 -32 -14 -82 -24 -111 -27
-76 -25 -171 6 -247 14 -33 25 -61 25 -62 0 -1 -14 -1 -32 -1 -22 1 -38 -7
-55 -26 -13 -15 -27 -24 -33 -21 -5 3 -19 35 -30 71 -24 78 -27 213 -6 289 36
136 132 252 260 315 116 58 217 72 337 50z m-296 -771 c5 -6 3 -9 -7 -9 -24 0
-48 11 -48 22 0 10 39 1 55 -13z"/>
<path d="M692 493 c-71 -35 -107 -126 -100 -253 8 -146 73 -210 210 -210 37 0
85 7 105 15 l38 15 -2 121 -1 120 -81 2 -81 2 0 -42 c0 -42 0 -43 35 -43 l35
0 0 -50 0 -50 -50 0 c-78 0 -110 43 -110 146 0 67 20 117 54 140 21 13 41 16
95 12 l69 -5 10 39 c10 37 9 40 -15 49 -40 15 -174 11 -211 -8z m10 -77 c-46
-50 -57 -87 -50 -176 3 -47 11 -70 36 -105 33 -47 33 -52 1 -35 -75 40 -77
281 -3 339 49 38 59 23 16 -23z m196 -241 c2 -66 0 -82 -14 -92 -37 -27 -47
-6 -14 27 24 24 26 86 5 114 -20 26 -19 38 3 34 14 -3 17 -16 20 -83z"/>
<path d="M1397 268 l2 -232 46 -2 45 -1 0 103 0 104 70 0 70 0 0 -103 0 -103
50 0 50 0 0 233 0 233 -50 0 -50 0 0 -90 0 -90 -70 0 -70 0 0 90 0 90 -47 0
-48 0 2 -232z m79 39 l25 -30 -25 -26 c-20 -20 -26 -39 -29 -86 -2 -33 -3 14
-3 105 0 91 1 143 3 116 3 -34 12 -59 29 -79z m214 -37 c0 -100 -4 -160 -10
-160 -6 0 -10 26 -10 58 0 44 -5 63 -20 80 -25 26 -25 31 0 62 13 17 20 41 20
73 0 26 5 47 10 47 6 0 10 -60 10 -160z"/>
<path d="M2110 266 l0 -234 35 1 c22 1 35 6 35 14 0 11 6 10 30 -2 43 -22 122
-20 153 5 74 58 58 266 -22 299 -30 13 -79 11 -113 -4 -16 -6 -18 0 -18 74 l0
81 -50 0 -50 0 0 -234z m60 126 c0 -21 7 -48 16 -60 14 -21 14 -25 -6 -57 -18
-29 -21 -46 -17 -93 3 -31 6 -64 8 -72 2 -8 0 -16 -6 -18 -6 -1 -11 61 -13
168 -2 111 1 170 8 170 5 0 10 -17 10 -38z m172 -99 c15 -13 18 -31 18 -97 -1
-55 -5 -87 -15 -100 -8 -11 -18 -17 -22 -13 -3 4 1 15 10 25 26 28 23 135 -4
173 -22 32 -16 38 13 12z m-42 -32 c16 -31 13 -127 -6 -145 -16 -17 -25 -18
-63 -7 -23 6 -24 10 -24 80 1 79 8 91 55 91 17 0 31 -7 38 -19z"/>
<path d="M1010 470 c-25 -25 -26 -52 -2 -73 37 -34 92 -11 92 38 0 24 -33 55
-57 55 -7 0 -22 -9 -33 -20z"/>
<path d="M1180 390 c0 -47 -2 -50 -25 -50 -22 0 -25 -4 -25 -35 0 -30 3 -35
24 -35 24 0 24 -2 28 -96 3 -91 5 -97 31 -120 22 -19 39 -24 83 -24 l54 0 0
41 c0 35 -3 41 -19 36 -40 -10 -51 9 -51 88 l0 75 35 0 c34 0 35 1 35 40 0 39
-1 40 -35 40 -35 0 -35 0 -35 45 l0 45 -50 0 -50 0 0 -50z m60 -22 c0 -7 10
-22 22 -35 l21 -23 -21 -23 c-18 -19 -22 -35 -22 -93 0 -48 5 -77 16 -92 19
-28 14 -37 -11 -18 -15 10 -20 32 -25 97 -3 46 -12 94 -20 106 -12 18 -11 24
3 47 9 14 17 32 17 41 0 9 5 13 10 10 6 -3 10 -11 10 -17z"/>
<path d="M1000 191 l0 -158 46 1 45 2 2 157 2 157 -47 0 -48 0 0 -159z"/>
<path d="M1772 214 c3 -135 3 -136 31 -160 33 -28 107 -33 162 -10 31 13 35
13 35 0 0 -9 10 -14 30 -14 l30 0 0 160 0 160 -47 0 -48 0 0 -117 0 -116 -29
-8 c-16 -5 -37 -4 -48 2 -16 9 -18 23 -18 124 l0 115 -51 0 -51 0 4 -136z m73
-108 c21 -29 19 -39 -5 -26 -18 10 -20 20 -18 113 l2 102 3 -84 c3 -52 9 -92
18 -105z m175 84 c0 -82 -3 -100 -15 -100 -17 0 -20 16 -5 25 6 3 10 44 10 91
0 46 2 84 5 84 3 0 5 -45 5 -100z"/>
</g>
</svg>
