<?xml version="1.0" standalone="no"?>
<!DOCTYPE svg PUBLIC "-//W3C//DTD SVG 20010904//EN"
 "http://www.w3.org/TR/2001/REC-SVG-20010904/DTD/svg10.dtd">
<svg version="1.0" xmlns="http://www.w3.org/2000/svg"
 width="300.000000pt" height="200.000000pt" viewBox="0 0 300.000000 200.000000"
 preserveAspectRatio="xMidYMid meet">
<metadata>
Created by potrace 1.10, written by Peter Selinger 2001-2011
</metadata>
<g transform="translate(0.000000,200.000000) scale(0.100000,-0.100000)"
fill="#000000" stroke="none">
<path d="M2000 1261 c-6 -12 -10 -115 -10 -265 0 -209 2 -247 16 -260 13 -14
52 -16 268 -16 183 0 255 3 264 12 17 17 17 519 0 536 -9 9 -83 12 -270 12
-244 0 -258 -1 -268 -19z m92 -21 c5 0 -4 -11 -20 -25 -36 -30 -42 -31 -42 -7
0 23 21 44 38 37 8 -3 18 -5 24 -5z m411 -2 c14 -7 17 -24 17 -113 0 -87 -3
-105 -15 -105 -9 0 -20 11 -25 24 -4 13 -20 33 -35 44 -23 19 -35 20 -128 15
-56 -3 -108 -10 -115 -16 -19 -15 -41 8 -24 25 19 19 14 72 -8 98 -11 13 -20
27 -20 32 0 12 329 8 353 -4z m-353 -48 c11 -11 20 -25 20 -32 0 -20 -32 -48
-55 -48 -46 0 -62 57 -23 84 29 20 34 20 58 -4z m-94 -78 c9 -14 9 -22 -1 -35
-15 -21 -25 -12 -25 25 0 32 10 36 26 10z m381 -56 c27 -24 28 -27 31 -141 l4
-116 -42 3 -43 3 -1 88 c-1 75 -4 91 -20 103 -24 17 -28 17 -52 0 -16 -12 -19
-28 -21 -103 l-2 -88 -40 -3 -41 -3 0 135 0 136 40 0 c30 0 40 -4 40 -16 0
-13 5 -12 26 5 36 28 86 27 121 -3z m-277 -122 l0 -135 -41 3 -42 3 -1 133 -1
132 43 0 42 0 0 -136z m198 -109 c2 -11 11 -28 19 -37 8 -9 12 -22 8 -27 -8
-14 -75 -14 -95 -1 -13 8 -12 12 8 25 13 10 22 27 22 41 0 19 5 25 17 22 10
-2 19 -12 21 -23z m-286 -67 c-15 -15 -55 31 -41 49 9 10 15 8 31 -13 14 -17
17 -29 10 -36z m441 38 c3 -8 -3 -22 -13 -31 -18 -16 -20 -16 -26 -1 -6 16 11
46 26 46 4 0 10 -6 13 -14z m-293 -25 c0 -13 -30 -22 -51 -16 -24 8 -24 21 -2
34 18 10 53 -2 53 -18z"/>
<path d="M653 1199 c-49 -18 -30 -89 24 -89 26 0 50 38 40 64 -9 22 -39 35
-64 25z"/>
<path d="M348 1003 l3 -198 119 0 120 0 0 40 0 40 -80 -3 -80 -4 0 161 0 161
-42 0 -43 0 3 -197z m76 -135 c5 -9 7 -20 3 -25 -11 -10 -41 11 -45 31 -5 23
26 18 42 -6z"/>
<path d="M1060 1002 l0 -197 40 0 40 0 0 70 0 70 45 -68 44 -69 51 -3 c27 -1
50 0 50 3 0 2 -23 36 -51 74 l-52 69 34 37 c19 20 43 47 53 60 l19 22 -50 0
c-49 0 -52 -2 -97 -56 l-46 -56 0 121 0 121 -40 0 -40 0 0 -198z m70 -51 c-1
-15 -29 -61 -31 -50 -6 21 -8 67 -4 78 7 18 35 -5 35 -28z m80 5 c0 -20 -19
-31 -32 -18 -6 6 -7 15 -4 21 10 16 36 13 36 -3z"/>
<path d="M1830 1120 l0 -81 -29 22 c-35 26 -100 22 -133 -8 -86 -76 -51 -232
56 -250 36 -6 96 12 96 28 0 5 5 9 10 9 6 0 10 -7 8 -16 -2 -12 6 -17 35 -18
l37 -3 0 199 0 198 -40 0 -40 0 0 -80z m45 -99 c4 -34 -13 -42 -35 -16 -11 13
-11 20 0 41 16 29 29 20 35 -25z m-67 -27 c31 -21 31 -87 0 -108 -48 -34 -108
-4 -108 54 0 58 60 88 108 54z m72 -108 c0 -16 -14 -36 -26 -36 -14 0 -19 22
-7 33 7 8 33 10 33 3z"/>
<path d="M862 1055 c-28 -23 -30 -23 -25 -5 5 18 0 20 -36 20 l-41 0 0 -133 0
-132 40 0 40 0 0 80 c0 86 15 125 49 125 35 0 46 -29 46 -118 l1 -84 42 -2 42
-2 -1 90 c0 50 -5 107 -12 126 -21 61 -93 79 -145 35z m100 -32 c12 -10 17
-28 17 -52 -2 -29 -3 -31 -6 -10 -2 15 -13 35 -24 45 -19 17 -25 34 -12 34 3
0 15 -7 25 -17z m-137 -3 c3 -5 1 -19 -6 -31 -10 -19 -13 -20 -20 -6 -16 27
10 64 26 37z"/>
<path d="M1400 1062 c-134 -67 -85 -262 67 -262 38 0 104 28 110 46 1 5 -9 17
-22 27 -23 16 -27 17 -47 3 -12 -9 -33 -16 -45 -16 -22 0 -63 31 -63 48 0 4
43 6 95 4 l95 -4 0 41 c0 107 -93 162 -190 113z m98 -54 c26 -26 13 -38 -43
-38 -59 0 -64 4 -38 32 18 20 63 24 81 6z m-104 -55 c7 -16 -17 -57 -27 -46
-4 3 -7 21 -7 39 0 25 4 32 14 28 8 -3 17 -12 20 -21z"/>
<path d="M630 937 l0 -133 40 1 40 0 0 133 0 132 -40 0 -40 0 0 -133z"/>
<path d="M2592 788 c-7 -7 -12 -17 -12 -22 0 -6 5 -4 10 4 8 12 10 11 10 -6 0
-12 7 -21 15 -21 8 0 15 9 15 21 0 16 2 18 9 7 5 -8 7 -20 4 -28 -6 -15 -49
-18 -56 -3 -3 6 -4 5 -3 -2 4 -19 57 -16 69 4 9 13 7 22 -7 37 -22 24 -37 26
-54 9z"/>
</g>
</svg>
