<?xml version="1.0" standalone="no"?>
<!DOCTYPE svg PUBLIC "-//W3C//DTD SVG 20010904//EN"
 "http://www.w3.org/TR/2001/REC-SVG-20010904/DTD/svg10.dtd">
<svg version="1.0" xmlns="http://www.w3.org/2000/svg"
 width="200.000000pt" height="200.000000pt" viewBox="0 0 200.000000 200.000000"
 preserveAspectRatio="xMidYMid meet">
<metadata>
Created by potrace 1.10, written by Peter Selinger 2001-2011
</metadata>
<g transform="translate(0.000000,200.000000) scale(0.100000,-0.100000)"
fill="#000000" stroke="none">
<path d="M150 1918 c-33 -17 -51 -35 -67 -68 -23 -44 -23 -48 -23 -475 0 -427
0 -431 23 -475 16 -33 34 -51 67 -68 43 -22 53 -23 263 -20 119 2 217 2 217 0
0 -1 -11 -19 -24 -40 -13 -21 -40 -70 -60 -110 l-36 -72 -49 0 c-86 0 -138
-70 -108 -143 29 -68 22 -67 412 -67 344 0 351 0 369 -21 13 -16 25 -20 46
-15 39 7 45 -6 15 -34 -14 -13 -25 -30 -25 -39 0 -20 140 -161 159 -161 8 0
27 12 43 27 30 29 35 25 40 -37 l3 -35 109 -3 c125 -3 141 4 133 55 -7 42 4
49 33 18 13 -14 31 -25 39 -25 21 0 161 140 161 161 0 9 -11 26 -25 39 -31 29
-23 42 19 35 50 -10 57 6 54 131 l-3 109 -35 3 c-62 5 -66 10 -37 40 15 16 27
35 27 43 0 9 -35 50 -78 91 -70 68 -76 77 -59 87 9 6 26 26 37 44 19 31 20 52
20 483 l0 451 -22 33 c-13 18 -36 43 -51 54 -28 21 -35 21 -785 24 l-757 2
-45 -22z m1545 -53 c18 -9 37 -27 44 -41 7 -17 11 -132 11 -364 l0 -340 -815
0 -815 0 0 330 c0 370 3 389 62 415 28 12 152 14 756 15 633 0 728 -2 757 -15z
m55 -860 c0 -69 -14 -100 -55 -120 -48 -22 -1457 -23 -1511 0 -41 17 -64 63
-64 130 l0 45 815 0 815 0 0 -55z m-450 -194 c0 -5 -6 -14 -14 -20 -12 -10
-17 -8 -26 8 -9 19 -8 21 15 21 14 0 25 -4 25 -9z m110 -5 c0 -24 -16 -27 -35
-6 -18 19 -17 20 8 20 17 0 27 -5 27 -14z m279 -5 c-13 -11 -28 -16 -33 -11
-14 13 3 30 31 30 l25 0 -23 -19z m-481 -26 l23 -36 -31 -25 c-36 -31 -38 -53
-5 -84 13 -12 22 -27 19 -31 -6 -11 -637 -12 -632 -1 2 4 28 53 58 110 l55
102 245 0 245 0 23 -35z m387 24 c-15 -24 5 -56 45 -72 38 -14 41 -14 66 5
l26 21 44 -44 44 -43 -22 -23 c-21 -23 -21 -25 -7 -66 14 -38 19 -42 53 -45
l37 -3 -3 -62 c-3 -59 -4 -62 -28 -59 -31 3 -42 -5 -58 -41 -17 -40 -15 -64 8
-80 20 -14 19 -16 -26 -61 -45 -45 -47 -46 -61 -26 -16 23 -40 25 -80 8 -36
-16 -44 -27 -41 -58 3 -24 0 -25 -59 -28 l-62 -3 -3 37 c-3 34 -7 39 -45 53
-41 14 -43 14 -66 -7 l-23 -22 -43 44 -44 44 21 26 c19 25 19 28 5 66 -16 40
-48 60 -72 45 -7 -4 -11 16 -11 59 l0 65 32 3 c26 3 34 10 49 46 l19 43 -24
24 -23 23 44 45 45 44 23 -23 24 -24 43 19 c36 15 43 23 46 49 l3 32 65 0 c43
0 63 -4 59 -11z m-465 -314 l0 -45 -351 2 c-342 3 -352 4 -365 23 -12 18 -11
24 2 43 15 22 16 22 365 22 l349 0 0 -45z"/>
<path d="M863 1546 l-142 -283 25 -12 c14 -6 27 -11 29 -11 3 0 68 126 145
280 l140 280 -28 14 -28 14 -141 -282z"/>
<path d="M522 1627 c-62 -62 -112 -119 -112 -127 0 -9 51 -66 113 -128 l113
-113 22 24 22 23 -99 97 -98 97 99 98 99 97 -23 22 -24 23 -112 -113z"/>
<path d="M1122 1717 l-23 -24 101 -96 100 -97 -101 -97 -101 -98 24 -22 24
-23 119 120 120 120 -121 120 -120 121 -22 -24z"/>
<path d="M1280 1280 c0 -27 3 -30 33 -30 29 0 32 3 32 30 0 27 -3 30 -32 30
-30 0 -33 -3 -33 -30z"/>
<path d="M1405 1280 c0 -27 3 -30 33 -30 29 0 32 3 32 30 0 27 -3 30 -32 30
-30 0 -33 -3 -33 -30z"/>
<path d="M1530 1280 c0 -27 3 -30 33 -30 29 0 32 3 32 30 0 27 -3 30 -32 30
-30 0 -33 -3 -33 -30z"/>
<path d="M1476 648 c-54 -15 -110 -74 -125 -132 -37 -147 109 -278 247 -221
170 72 155 305 -23 354 -46 12 -47 12 -99 -1z m133 -83 c39 -34 56 -85 42
-127 -35 -101 -149 -125 -216 -47 -19 24 -25 42 -25 81 0 44 4 54 34 84 30 30
40 34 84 34 39 0 57 -6 81 -25z"/>
<path d="M173 281 c-57 -34 -97 -90 -108 -154 -12 -66 -8 -67 214 -67 140 0
200 3 209 12 34 34 -17 155 -86 203 -35 24 -55 30 -110 33 -60 3 -73 0 -119
-27z m108 -91 c26 0 29 3 29 30 0 34 1 35 38 16 35 -18 68 -54 81 -88 l11 -28
-155 0 c-124 0 -155 3 -155 14 0 24 44 79 80 98 l35 18 3 -30 c3 -26 7 -30 33
-30z"/>
</g>
</svg>
